<svg width="1235" height="1640" viewBox="0 0 1235 1640" fill="none" xmlns="http://www.w3.org/2000/svg">
<rect width="89.575" height="90.1664" rx="44.7875" transform="matrix(-1 5.56363e-08 5.56363e-08 1 409.244 11.6558)" fill="#FDA26B"/>
<rect width="89.0908" height="90.1664" rx="44.5454" transform="matrix(-1 5.56363e-08 5.56363e-08 1 290.86 11.6558)" fill="#50B09F"/>
<rect width="89.575" height="90.1664" rx="44.7875" transform="matrix(-1 5.56363e-08 5.56363e-08 1 173.203 11.6558)" fill="#F38143"/>
<rect width="89.0908" height="90.1664" rx="44.5454" transform="matrix(-1 5.56363e-08 5.56363e-08 1 405.759 263.258)" fill="#FFA08B"/>
<rect width="89.575" height="90.1664" rx="44.7875" transform="matrix(-1 5.56363e-08 5.56363e-08 1 409.244 137.72)" fill="#E673A9"/>
<rect width="89.0908" height="90.1664" rx="44.5454" transform="matrix(-1 5.56363e-08 5.56363e-08 1 290.86 137.72)" fill="#D5CB2C"/>
<rect width="89.575" height="90.1664" rx="44.7875" transform="matrix(-1 5.56363e-08 5.56363e-08 1 173.203 137.72)" fill="#C1D8D3"/>
<rect width="89.575" height="90.1664" rx="44.7875" transform="matrix(-1 5.56363e-08 5.56363e-08 1 288.102 389.322)" fill="#FFABDA"/>
<rect width="89.575" height="90.1664" rx="44.7875" transform="matrix(-1 5.56363e-08 5.56363e-08 1 288.102 263.258)" fill="#308B7B"/>
<rect width="89.575" height="90.1664" rx="44.7875" transform="matrix(-1 5.56363e-08 5.56363e-08 1 154.927 495.577)" fill="#D39DDB"/>
<rect width="89.575" height="90.1664" rx="44.7875" transform="matrix(-1 5.56363e-08 5.56363e-08 1 172.897 263.258)" fill="#FDA26B"/>
<rect width="89.0908" height="90.3776" rx="44.5454" transform="matrix(-1 5.56363e-08 5.56363e-08 1 405.759 388.898)" fill="#A6A646"/>
<rect width="89.575" height="90.1664" rx="44.7875" transform="matrix(-1 5.56363e-08 5.56363e-08 1 416.92 0)" fill="#A6A646"/>
<rect width="89.0908" height="90.1664" rx="44.5454" transform="matrix(-1 5.56363e-08 5.56363e-08 1 298.537 0.00292969)" fill="#FDA26B"/>
<rect width="89.575" height="90.1664" rx="44.7875" transform="matrix(-1 5.56363e-08 5.56363e-08 1 180.878 0.00292969)" fill="#D6A6DC"/>
<rect width="89.0908" height="90.1664" rx="44.5454" transform="matrix(-1 5.56363e-08 5.56363e-08 1 413.435 251.603)" fill="#308B7B"/>
<rect width="89.575" height="90.1664" rx="44.7875" transform="matrix(-1 5.56363e-08 5.56363e-08 1 416.92 126.065)" fill="#FFABDA"/>
<rect width="89.0908" height="90.1664" rx="44.5454" transform="matrix(-1 5.56363e-08 5.56363e-08 1 298.537 126.067)" fill="#BCD1D4"/>
<rect width="89.575" height="90.1664" rx="44.7875" transform="matrix(-1 5.56363e-08 5.56363e-08 1 180.878 126.067)" fill="#F38143"/>
<rect width="89.575" height="90.1664" rx="44.7875" transform="matrix(-1 5.56363e-08 5.56363e-08 1 295.777 377.668)" fill="#D5CB2C"/>
<rect width="89.575" height="90.1664" rx="44.7875" transform="matrix(-1 5.56363e-08 5.56363e-08 1 295.777 251.603)" fill="#FFA08B"/>
<rect width="89.575" height="90.1664" rx="44.7875" transform="matrix(-1 5.56363e-08 5.56363e-08 1 162.604 483.923)" fill="#50B09F"/>
<rect width="89.575" height="90.1664" rx="44.7875" transform="matrix(-1 5.56363e-08 5.56363e-08 1 180.574 251.603)" fill="#E673A9"/>
<rect width="89.0908" height="90.3776" rx="44.5454" transform="matrix(-1 5.56363e-08 5.56363e-08 1 413.435 377.245)" fill="#F8DAD0"/>
<line x1="1143.39" y1="1348.8" x2="1143.39" y2="825.757" stroke="#FDA26B" stroke-width="5"/>
<line x1="973.504" y1="1348.8" x2="973.504" y2="825.757" stroke="#FDA26B" stroke-width="5"/>
<line x1="803.617" y1="1348.8" x2="803.617" y2="825.757" stroke="#FDA26B" stroke-width="5"/>
<line x1="633.729" y1="1348.8" x2="633.729" y2="825.757" stroke="#FDA26B" stroke-width="5"/>
<line x1="1191.44" y1="899.621" x2="679.157" y2="794.049" stroke="#FDA26B" stroke-width="5"/>
<line x1="1157.15" y1="1066.01" x2="644.867" y2="960.44" stroke="#FDA26B" stroke-width="5"/>
<line x1="1122.86" y1="1232.4" x2="610.576" y2="1126.83" stroke="#FDA26B" stroke-width="5"/>
<line x1="1088.57" y1="1398.8" x2="576.286" y2="1293.22" stroke="#FDA26B" stroke-width="5"/>
<path d="M348.965 1230.4C433.92 1266.49 543.881 1360.02 580.115 1248.93C604.855 1173.09 519.543 1191.72 495.686 1275.73C471.829 1359.74 649.015 1362.43 757.147 1229.85M757.147 1229.85L722.689 1228.41M757.147 1229.85L753.763 1275.73" stroke="#E673A9" stroke-width="5" stroke-linecap="round"/>
<path d="M373.676 1087.5C398.17 1143.22 553.341 1180.05 657.583 1087.5C761.826 994.952 997.9 1086.05 1077.42 1134.64M1077.42 1134.64L1030.06 1134.64M1077.42 1134.64L1063.01 1097.06" stroke="#FFA08B" stroke-width="5" stroke-linecap="round"/>
<path d="M107.518 1215.47C132.012 1271.19 213.569 1396.17 327.858 1316.89C432.1 1224.34 505.081 1079.04 908.564 1250.99M908.564 1250.99L875.102 1260.26M908.564 1250.99L889.516 1215.47" stroke="#D5CB2C" stroke-width="5" stroke-linecap="round"/>
<path d="M426.701 836.053C526.92 827.828 697.473 841.549 708.662 1031.69M708.662 1031.69L733.979 1003.61M708.662 1031.69L679.477 998.899" stroke="#D6A6DC" stroke-width="5" stroke-linecap="round"/>
<path d="M1084.99 1549.82C1152.52 1511.88 1253.93 1430.14 1168.3 1307.67M1168.3 1307.67L1198.03 1314.17M1168.3 1307.67L1165.79 1340.5" stroke="#A6A646" stroke-width="5" stroke-linecap="round"/>
<path d="M726.592 263.008C677.476 213.104 566.68 111.987 458.956 172.926M458.956 172.926L470.956 153.926M458.956 172.926L478.456 184.426" stroke="#D6A6DC" stroke-width="5" stroke-linecap="round"/>
<path d="M153.478 665.272C214.398 717.32 365.27 793.826 481.397 683.46C597.525 573.095 677.696 783.534 703.273 902.547M703.273 902.547L661.34 866M703.273 902.547L719.007 850.549" stroke="#50B09F" stroke-width="5" stroke-linecap="round"/>
<path d="M444 542.971C590.5 508.5 590.5 623.5 771.919 561.16C1060 503 1071.21 823.254 1031.5 935M1031.5 935L1020.5 902M1031.5 935L1062 911" stroke="#BCD1D4" stroke-width="5" stroke-linecap="round"/>
<rect width="89.4478" height="90.0384" rx="44.7239" transform="matrix(4.37114e-08 1 1 -4.37114e-08 295.713 985.806)" fill="#50B09F"/>
<rect width="89.4478" height="90.0384" rx="44.7239" transform="matrix(4.37114e-08 1 1 -4.37114e-08 304.23 978.141)" fill="#FFA08B"/>
<rect width="88.9642" height="90.0384" rx="44.4821" transform="matrix(4.37114e-08 1 1 -4.37114e-08 424.416 680.008)" fill="#E673A9"/>
<rect width="88.9642" height="90.0384" rx="44.4821" transform="matrix(4.37114e-08 1 1 -4.37114e-08 432.934 672.343)" fill="#FDA26B"/>
<rect width="89.4478" height="90.0384" rx="44.7239" transform="matrix(4.37114e-08 1 1 -4.37114e-08 21.8335 728.4)" fill="#F38143"/>
<rect width="89.4478" height="90.0384" rx="44.7239" transform="matrix(4.37114e-08 1 1 -4.37114e-08 30.3506 720.735)" fill="#FFABDA"/>
<rect width="88.9642" height="90.0384" rx="44.4821" transform="matrix(4.37114e-08 1 1 -4.37114e-08 314.246 504.973)" fill="#308B7B"/>
<rect width="88.9642" height="90.0384" rx="44.4821" transform="matrix(4.37114e-08 1 1 -4.37114e-08 322.763 497.307)" fill="#BCD1D4"/>
<rect width="89.4478" height="90.0384" rx="44.7239" transform="matrix(4.37114e-08 1 1 -4.37114e-08 450.156 904.465)" fill="#FFABDA"/>
<rect width="89.4478" height="90.0384" rx="44.7239" transform="matrix(4.37114e-08 1 1 -4.37114e-08 458.673 896.8)" fill="#F38143"/>
<rect width="88.9642" height="90.2492" rx="44.4821" transform="matrix(4.37114e-08 1 1 -4.37114e-08 0.000976562 922.999)" fill="#FFA08B"/>
<rect width="88.9642" height="90.2492" rx="44.4821" transform="matrix(4.37114e-08 1 1 -4.37114e-08 8.51855 915.334)" fill="#F8DAD0"/>
<rect width="89.4478" height="90.0384" rx="44.7239" transform="matrix(4.37114e-08 1 1 -4.37114e-08 49.6333 1101.12)" fill="#D6A6DC"/>
<rect width="89.4478" height="90.0384" rx="44.7239" transform="matrix(4.37114e-08 1 1 -4.37114e-08 58.1504 1093.46)" fill="#D5CB2C"/>
<rect width="88.9642" height="90.0384" rx="44.4821" transform="matrix(4.37114e-08 1 1 -4.37114e-08 143.329 896.229)" fill="#D5CB2C"/>
<rect width="88.9642" height="90.0384" rx="44.4821" transform="matrix(4.37114e-08 1 1 -4.37114e-08 151.847 888.563)" fill="#308B7B"/>
<rect width="89.4478" height="90.0384" rx="44.7239" transform="matrix(4.37114e-08 1 1 -4.37114e-08 196.869 661.475)" fill="#FDA26B"/>
<rect width="89.4478" height="90.0384" rx="44.7239" transform="matrix(4.37114e-08 1 1 -4.37114e-08 205.387 653.809)" fill="#A6A646"/>
<rect width="89.4478" height="90.0384" rx="44.7239" transform="matrix(4.37114e-08 1 1 -4.37114e-08 304.979 791.207)" fill="#F8DAD0"/>
<rect width="89.4478" height="90.0384" rx="44.7239" transform="matrix(4.37114e-08 1 1 -4.37114e-08 313.497 783.542)" fill="#D6A6DC"/>
<rect width="89.4478" height="90.0384" rx="44.7239" transform="matrix(4.37114e-08 1 1 -4.37114e-08 238.054 1157.75)" fill="#A6A646"/>
<rect width="89.4478" height="90.0384" rx="44.7239" transform="matrix(4.37114e-08 1 1 -4.37114e-08 246.571 1150.09)" fill="#E673A9"/>
<path d="M715.325 737.495C716.754 734.348 720.035 732.44 723.35 733.12C725.09 733.476 726.146 734.433 726.302 735.731L727.141 734.279L729.798 734.823L725.146 745.073C723.51 748.679 720.161 750.453 716.399 749.682C713.06 748.998 711.583 746.761 712.54 743.804L715.408 744.391C714.961 745.829 715.736 746.895 717.5 747.256C719.475 747.661 721.27 746.763 722.083 744.971L722.897 743.179C721.712 744.035 719.99 744.375 718.32 744.033C715.029 743.358 713.907 740.62 715.325 737.495ZM718.247 738.022C717.424 739.836 718.055 741.446 719.936 741.832C721.911 742.236 723.719 741.197 724.572 739.318C725.405 737.482 724.781 735.969 722.782 735.559C720.878 735.169 719.05 736.252 718.247 738.022ZM747.128 738.326L746.008 740.796L744.95 740.579C742.881 740.155 741.121 740.917 740.169 743.015L737.789 748.261L734.92 747.673L739.81 736.898L742.514 737.452L741.964 739.06C742.944 738.09 744.376 737.595 745.928 737.913C746.328 737.995 746.708 738.121 747.128 738.326ZM758.52 738.343C757.532 738.141 757.084 737.261 757.49 736.365C757.897 735.469 758.99 734.928 759.978 735.131C760.918 735.323 761.377 736.182 760.97 737.078C760.563 737.974 759.46 738.536 758.52 738.343ZM751.204 751.009L756.104 740.213L758.972 740.801L754.072 751.597L751.204 751.009ZM768.733 754.912C765.371 754.223 764.32 751.499 765.838 748.155C767.365 744.79 770.572 742.819 774.075 743.537C775.697 743.87 776.844 744.797 777.087 746.017L780.191 739.177L783.036 739.76L775.657 756.02L773.024 755.48L773.599 753.759C772.329 754.86 770.497 755.273 768.733 754.912ZM770.479 752.594C772.477 753.003 774.376 751.935 775.258 749.99C776.141 748.045 775.463 746.425 773.464 746.016C771.466 745.606 769.618 746.732 768.746 748.656C767.873 750.579 768.48 752.184 770.479 752.594ZM800.868 755.262C802.396 751.896 806.057 750.114 809.654 750.851C813.251 751.588 814.81 754.44 813.282 757.805C811.755 761.171 808.094 762.953 804.497 762.216C800.899 761.479 799.341 758.627 800.868 755.262ZM803.737 755.849C802.844 757.816 803.603 759.429 805.578 759.833C807.553 760.238 809.521 759.184 810.414 757.217C811.306 755.251 810.548 753.638 808.573 753.233C806.598 752.829 804.629 753.882 803.737 755.849ZM823.851 754.095L825.521 754.437L826.116 753.125C827.445 750.197 829.669 749.315 832.185 749.83C832.632 749.922 833.163 750.055 833.617 750.243L832.585 752.516L831.574 752.309C830.117 752.01 829.447 752.637 828.961 753.708L828.365 755.02L831.14 755.588L830.128 757.817L827.354 757.249L823.466 765.816L820.621 765.233L824.509 756.666L822.84 756.324L823.851 754.095ZM851.383 771.536L848.515 770.948L853.415 760.152L856.048 760.692L855.708 762.007C856.702 761.232 858.195 760.773 859.864 761.115C861.628 761.477 862.483 762.536 862.529 763.907C863.683 762.782 865.413 762.252 867.177 762.614C869.998 763.192 870.836 765.083 869.705 767.575L866.501 774.634L863.656 774.051L866.543 767.691C867.247 766.139 866.72 765.148 865.357 764.868C863.969 764.584 862.535 765.198 861.731 766.968L858.954 773.087L856.086 772.5L858.982 766.118C859.666 764.61 859.163 763.623 857.8 763.344C856.436 763.064 854.954 763.668 854.161 765.417L851.383 771.536ZM889.147 767.474L892.015 768.061L887.115 778.858L884.459 778.313L884.902 776.827C883.73 777.71 881.908 778.101 880.356 777.783C877.676 777.234 876.864 775.228 878.064 772.584L881.129 765.831L883.998 766.419L881.359 772.232C880.427 774.286 880.92 775.295 882.519 775.623C884.329 775.994 885.645 775.188 886.578 773.134L889.147 767.474ZM901.081 781.719L898.213 781.132L902.101 772.564L899.867 772.107L900.879 769.878L903.113 770.335L904.64 766.97L907.508 767.557L905.981 770.923L908.238 771.386L907.226 773.615L904.969 773.152L901.081 781.719ZM924.951 774.81L927.82 775.398L922.92 786.194L920.263 785.65L920.706 784.164C919.535 785.047 917.713 785.438 916.161 785.12C913.48 784.57 912.669 782.565 913.869 779.92L916.934 773.167L919.802 773.755L917.164 779.568C916.232 781.623 916.725 782.631 918.323 782.959C920.134 783.33 921.45 782.525 922.382 780.47L924.951 774.81ZM936.263 789.239C933.795 788.733 932.895 787.091 933.817 785.059C934.72 783.07 936.837 782.142 939.677 782.509L943.266 782.982L943.375 782.741C944.039 781.277 943.367 780.494 941.909 780.196C940.216 779.849 938.978 780.312 938.462 781.448L936.017 780.947C937.079 778.609 939.842 777.503 942.992 778.148C946.119 778.789 947.333 780.758 945.974 783.752L942.999 790.308L940.483 789.793L940.996 788.154C939.996 789.167 938.074 789.61 936.263 789.239ZM938.116 787.421C939.88 787.782 941.454 787.03 942.208 785.369L942.466 784.801L939.965 784.479C938.109 784.266 937.179 784.673 936.782 785.547C936.336 786.53 936.823 787.156 938.116 787.421ZM955.762 792.923L952.917 792.341L960.296 776.081L963.141 776.663L955.762 792.923ZM967.914 790.325L968.985 787.965L976.556 789.516L975.484 791.877L967.914 790.325ZM729.338 778.378L726.681 777.834L734.06 761.574L736.928 762.162L733.735 769.199C735.033 768.151 736.912 767.748 738.675 768.109C741.99 768.788 742.921 771.607 741.374 775.016C739.866 778.338 736.639 780.185 733.3 779.501C731.56 779.144 730.406 778.119 730.29 776.734L729.338 778.378ZM732.043 772.985C731.16 774.93 731.848 776.528 733.823 776.932C735.845 777.347 737.659 776.237 738.532 774.314C739.405 772.391 738.83 770.768 736.808 770.354C734.833 769.949 732.925 771.04 732.043 772.985ZM753.359 783.611C749.902 782.902 748.542 780.068 750.059 776.724C751.597 773.337 755.033 771.485 758.442 772.183C761.921 772.896 763.15 775.513 761.622 778.878L761.255 779.687L752.499 777.917C751.848 779.861 752.493 781.045 754.397 781.435C755.973 781.758 757.265 781.401 758.06 780.442L760.717 780.986C759.152 783.245 756.392 784.232 753.359 783.611ZM757.473 774.373C755.781 774.027 754.359 774.667 753.343 776.226L759.174 777.421C759.848 775.935 759.19 774.725 757.473 774.373ZM771.301 786.976L768.432 786.389L773.332 775.592L775.989 776.137L775.589 777.584C776.814 776.64 778.512 776.296 780.087 776.618C783.003 777.216 783.744 779.207 782.474 782.004L779.459 788.648L776.591 788.06L779.318 782.05C780.142 780.236 779.574 779.165 778.093 778.861C776.33 778.5 774.732 779.415 773.939 781.163L771.301 786.976ZM794.398 792.02C790.942 791.311 789.581 788.477 791.099 785.133C792.636 781.746 796.072 779.894 799.481 780.592C802.961 781.305 804.189 783.922 802.662 787.287L802.295 788.096L793.539 786.326C792.887 788.27 793.532 789.454 795.437 789.844C797.012 790.167 798.305 789.81 799.1 788.851L801.757 789.395C800.192 791.654 797.431 792.641 794.398 792.02ZM798.513 782.782C796.82 782.436 795.399 783.076 794.383 784.635L800.214 785.83C800.888 784.344 800.229 783.134 798.513 782.782ZM817.583 796.46L821.471 787.893L816.722 786.92L812.834 795.487L809.989 794.904L813.877 786.337L812.208 785.995L813.219 783.765L814.889 784.107L815.484 782.796C816.813 779.868 819.014 778.981 821.365 779.463C821.812 779.554 822.343 779.687 822.797 779.876L821.765 782.148L820.754 781.941C819.461 781.676 818.815 782.308 818.329 783.379L817.734 784.69L825.351 786.251L820.452 797.048L817.583 796.46ZM824.919 783.75C823.955 783.553 823.52 782.699 823.926 781.803C824.323 780.929 825.393 780.384 826.357 780.581C827.297 780.774 827.732 781.627 827.336 782.502C826.929 783.398 825.859 783.943 824.919 783.75ZM832.24 793.539C833.758 790.195 837.203 788.322 840.636 789.025C843.81 789.675 845.229 791.758 844.355 794.421L841.486 793.833C841.713 792.542 841.036 791.711 839.673 791.431C837.839 791.055 836.031 792.094 835.109 794.127C834.186 796.159 834.739 797.658 836.573 798.034C838.008 798.328 839.316 797.879 840.157 796.762L843.049 797.354C841.556 799.795 838.515 801.059 835.482 800.438C831.956 799.715 830.683 796.97 832.24 793.539ZM857.758 790.527C856.771 790.324 856.322 789.444 856.729 788.548C857.135 787.652 858.229 787.112 859.216 787.314C860.157 787.507 860.615 788.365 860.208 789.261C859.802 790.157 858.699 790.719 857.758 790.527ZM850.443 803.193L855.342 792.396L858.21 792.984L853.311 803.78L850.443 803.193ZM866.655 806.825C864.186 806.319 863.287 804.678 864.209 802.645C865.112 800.657 867.229 799.729 870.069 800.096L873.658 800.568L873.767 800.328C874.431 798.864 873.759 798.081 872.301 797.782C870.608 797.435 869.37 797.898 868.854 799.035L866.409 798.534C867.47 796.195 870.234 795.089 873.384 795.735C876.511 796.376 877.725 798.344 876.366 801.338L873.391 807.895L870.875 807.379L871.388 805.741C870.388 806.754 868.466 807.196 866.655 806.825ZM868.508 805.007C870.271 805.369 871.846 804.616 872.6 802.955L872.858 802.387L870.357 802.066C868.501 801.853 867.571 802.259 867.174 803.133C866.728 804.117 867.215 804.742 868.508 805.007ZM886.154 810.51L883.309 809.927L890.688 793.667L893.533 794.25L886.154 810.51ZM903.532 799.906C902.545 799.703 902.096 798.823 902.503 797.927C902.909 797.031 904.003 796.491 904.99 796.693C905.931 796.886 906.389 797.744 905.982 798.64C905.576 799.536 904.473 800.098 903.532 799.906ZM896.217 812.572L901.116 801.776L903.984 802.363L899.085 813.16L896.217 812.572ZM913.052 816.021L910.183 815.434L914.071 806.867L911.838 806.409L912.849 804.18L915.083 804.637L916.61 801.272L919.479 801.859L917.951 805.225L920.208 805.688L919.197 807.917L916.94 807.454L913.052 816.021ZM920.863 823.092L921.875 820.863L923.591 821.215C924.72 821.446 925.534 821.35 926.603 820.184L927.299 819.442L927.729 807.228L930.761 807.85L930.177 816.329L936.898 809.107L939.86 809.714L928.18 821.749C926.398 823.581 924.798 824.161 922.894 823.771C922.094 823.607 921.429 823.375 920.863 823.092Z" fill="#FDA26B"/>
</svg>
